<svg width="61" height="61" viewBox="0 0 61 61" fill="none" xmlns="http://www.w3.org/2000/svg">
<path d="M40.5809 7.11622C40.576 7.11622 39.9 7.32688 38.7535 7.68207C38.5625 7.06233 38.2808 6.3005 37.879 5.53378C36.5857 3.06459 34.6897 1.7565 32.3993 1.75405C32.3968 1.75405 32.3944 1.75405 32.3919 1.75405C32.2327 1.75405 32.0759 1.76875 31.9167 1.78344C31.8506 1.70261 31.782 1.62177 31.7085 1.54584C30.7115 0.477811 29.4304 -0.0415038 27.8969 0.00258893C24.9378 0.0883248 21.9934 2.22437 19.6051 6.0188C17.9246 8.68886 16.6459 12.0448 16.2834 14.6389C12.8858 15.6898 10.5097 16.4271 10.4583 16.4418C8.74354 16.9807 8.68965 17.0346 8.46428 18.6489C8.29771 19.8737 3.8125 54.5625 3.8125 54.5625L41.0317 61V7.04028C40.848 7.05253 40.6838 7.08682 40.5809 7.11622ZM31.9878 9.77648C30.0183 10.3864 27.8675 11.0527 25.7119 11.719C26.3194 9.39679 27.4683 7.08192 28.8817 5.56807C29.4083 5.00467 30.1432 4.37512 31.0128 4.01748C31.8285 5.72485 32.0074 8.1426 31.9878 9.77648ZM27.9582 1.97206C28.6539 1.95737 29.2369 2.10924 29.7366 2.43994C28.938 2.85392 28.1639 3.45162 27.4389 4.22814C25.56 6.24416 24.1197 9.37475 23.5465 12.3927C21.7558 12.9463 20.0019 13.4901 18.39 13.9898C19.4091 9.23512 23.3921 2.10189 27.9582 1.97206ZM22.2016 29.0426C22.4025 32.2099 30.7311 32.9007 31.199 40.3181C31.5664 46.153 28.1051 50.1434 23.1129 50.4594C17.1236 50.8366 13.8265 47.3043 13.8265 47.3043L15.0953 41.9054C15.0953 41.9054 18.4145 44.4089 21.0699 44.2423C22.8042 44.1321 23.424 42.7211 23.3627 41.7241C23.1031 37.5941 16.3201 37.8366 15.8915 31.0512C15.5314 25.3388 19.2817 19.5528 27.5564 19.0311C30.7458 18.8302 32.3772 19.6435 32.3772 19.6435L30.4837 26.7228C30.4837 26.7228 28.3722 25.7625 25.8711 25.9193C22.2041 26.1471 22.1649 28.462 22.2016 29.0426ZM33.9548 9.16898C33.9327 7.66983 33.7539 5.58767 33.0558 3.78477C35.2996 4.211 36.4068 6.74878 36.8723 8.26508C36.0076 8.53209 35.0204 8.83828 33.9548 9.16898Z" fill="white"/>
<path d="M42.2615 60.8531L57.7013 57.0146C57.7013 57.0146 51.0531 12.0669 51.0114 11.7583C50.9698 11.4496 50.7003 11.2806 50.4774 11.261C50.2545 11.2414 45.9089 11.1753 45.9089 11.1753C45.9089 11.1753 43.2585 8.60076 42.2639 7.62827V60.8531H42.2615Z" fill="white"/>
</svg>
